<svg xmlns="http://www.w3.org/2000/svg" width="17.5" height="17.5" viewBox="0 0 17.5 17.5"><g transform="translate(-317.25 -140.25)"><path d="M3.266-.75c1,0,1.694.726,2.567,1.646.215.226.437.46.687.71a2.617,2.617,0,0,1,.627,3.159,2.433,2.433,0,0,0-.209,1.228,3.753,3.753,0,0,0,1.2,1.874A3.3,3.3,0,0,0,10.25,9.083a3.024,3.024,0,0,0,.986-.229A3.774,3.774,0,0,1,12.5,8.577a2.653,2.653,0,0,1,1.9.9c.247.247.479.467.7.68.916.871,1.639,1.559,1.651,2.552.01.839-.488,1.684-1.719,2.915q-.021.021-.043.04l-.037.038a3.251,3.251,0,0,1-2.476,1.047c-2.131,0-4.9-1.683-8.216-5S-.762,5.64-.75,3.5A3.249,3.249,0,0,1,.3,1.053l.038-.037Q.353.993.374.972C1.6-.251,2.435-.75,3.266-.75ZM10.25,10.583A4.572,4.572,0,0,1,7.075,8.928a5.114,5.114,0,0,1-1.618-2.7,3.8,3.8,0,0,1,.274-1.96c.244-.7.345-.988-.271-1.6-.264-.264-.5-.515-.714-.738C4.1,1.245,3.626.75,3.266.75s-.972.425-1.813,1.263c-.035.039-.072.075-.11.113A1.771,1.771,0,0,0,.75,3.513C.743,4.7,1.53,6.9,5.317,10.686s5.974,4.564,7.156,4.564a1.773,1.773,0,0,0,1.4-.594c.038-.038.074-.075.113-.111.841-.844,1.265-1.455,1.261-1.816s-.525-.856-1.185-1.484c-.22-.209-.469-.446-.729-.706-.41-.409-.662-.462-.836-.462a2.56,2.56,0,0,0-.767.193A4.365,4.365,0,0,1,10.25,10.583Z" transform="translate(318 141)"/></g></svg>