<svg xmlns="http://www.w3.org/2000/svg" width="23.594" height="17.5" viewBox="0 0 23.594 17.5"><g transform="translate(-273.25 -140.25)"><path d="M3.932,16.75A4.756,4.756,0,0,1,.774,15.561a4.469,4.469,0,0,1-1.509-2.99c-.01-.123-.014-3.012-.012-8.587A4.442,4.442,0,0,1,.433.782,4.72,4.72,0,0,1,3.741-.745c.027,0,.062,0,1.019,0,2.028,0,6.559.008,6.955.009.111-.008.224-.011.335-.011a4.773,4.773,0,0,1,3.173,1.2,4.488,4.488,0,0,1,1.512,3.006c.012.15.012,4.742.011,8.575a4.436,4.436,0,0,1-1.183,3.2,4.72,4.72,0,0,1-3.311,1.521c-.025,0-.055,0-.743,0-1.863,0-6.819-.01-7.238-.011C4.159,16.746,4.045,16.75,3.932,16.75ZM.762,12.464a3.143,3.143,0,0,0,3.17,2.786c.085,0,.172,0,.257-.01l.058,0c.053,0,5.328.011,7.263.011H12.2a3.23,3.23,0,0,0,2.262-1.037,2.946,2.946,0,0,0,.788-2.134q0-.017,0-.033c0-3.239,0-8.129-.007-8.486A3.159,3.159,0,0,0,12.051.75c-.084,0-.169,0-.253.009l-.057,0c-.048,0-4.87-.009-6.98-.009-.772,0-.929,0-.96,0A3.232,3.232,0,0,0,1.539,1.8,2.951,2.951,0,0,0,.753,3.934q0,.017,0,.035C.753,7.208.754,12.1.762,12.464Z" transform="translate(274 141)"/><path d="M4.649,12.006a2.164,2.164,0,0,1-1.377-.5L-.476,8.428a.75.75,0,0,1-.1-1.056.75.75,0,0,1,1.056-.1l3.749,3.08A.676.676,0,0,0,5.33,9.829l.014-8.4A.677.677,0,0,0,4.239.906L.475,3.986A.75.75,0,0,1-.58,3.881.75.75,0,0,1-.475,2.825L3.288-.255A2.177,2.177,0,0,1,6.844,1.431l-.014,8.4a2.156,2.156,0,0,1-1.246,1.964A2.186,2.186,0,0,1,4.649,12.006Z" transform="translate(290 143.286)"/></g></svg>