<svg xmlns="http://www.w3.org/2000/svg" width="80" height="80" viewBox="0 0 80 80"><g transform="translate(-147 -278)"><circle cx="40" cy="40" r="40" transform="translate(147 278)"/><path d="M33.333,11.667V28.333A1.667,1.667,0,0,1,31.667,30h-30A1.667,1.667,0,0,1,0,28.333V11.667Zm0-3.333H0V1.667A1.667,1.667,0,0,1,1.667,0h30a1.667,1.667,0,0,1,1.667,1.667ZM21.667,21.667V25h6.667V21.667Z" transform="translate(170 303)" fill="#fff"/><circle cx="10" cy="10" r="10" transform="translate(205 279)" fill="#64ba67"/><path d="M2.5,5.75a.748.748,0,0,1-.53-.22l-2.5-2.5a.75.75,0,0,1,0-1.061.75.75,0,0,1,1.061,0L2.5,3.939,6.971-.53a.75.75,0,0,1,1.061,0,.75.75,0,0,1,0,1.061l-5,5A.748.748,0,0,1,2.5,5.75Z" transform="translate(211 287)" fill="#fff"/></g></svg>