<svg xmlns="http://www.w3.org/2000/svg" width="19.64" height="17.5" viewBox="0 0 19.64 17.5"><g transform="translate(-40.25 -752.25)"><path d="M9.07-.75A11.783,11.783,0,0,1,12.328-.4a3.518,3.518,0,0,1,1.7,1.909A3.443,3.443,0,0,0,14.3,2a1.166,1.166,0,0,0,.753.348A3.84,3.84,0,0,1,18.89,6.18v5.682A4.893,4.893,0,0,1,14,16.75H4.138A4.893,4.893,0,0,1-.75,11.862V6.18A3.84,3.84,0,0,1,3.086,2.345,1.169,1.169,0,0,0,3.839,2a3.457,3.457,0,0,0,.271-.488A3.515,3.515,0,0,1,5.811-.4,11.791,11.791,0,0,1,9.07-.75ZM14,15.25a3.392,3.392,0,0,0,3.388-3.388V6.18a2.338,2.338,0,0,0-2.336-2.335A2.646,2.646,0,0,1,13.2,3.011a3.623,3.623,0,0,1-.508-.833c-.24-.481-.512-1.026-.915-1.186A10.459,10.459,0,0,0,9.07.75a10.466,10.466,0,0,0-2.7.243c-.4.16-.674.7-.913,1.185a3.62,3.62,0,0,1-.509.833,2.649,2.649,0,0,1-1.858.834A2.338,2.338,0,0,0,.75,6.18v5.682A3.392,3.392,0,0,0,4.138,15.25Z" transform="translate(41 753)" fill="#888"/><path d="M.009,1H0A1,1,0,0,1-1,0,1,1,0,0,1,0-1H.009a1,1,0,0,1,1,1A1,1,0,0,1,.009,1Z" transform="translate(55.458 758.638)" fill="#888"/><path d="M3.117-.75A3.867,3.867,0,1,1-.75,3.117,3.872,3.872,0,0,1,3.117-.75Zm0,6.234A2.367,2.367,0,1,0,.75,3.117,2.37,2.37,0,0,0,3.117,5.484Z" transform="translate(46.953 759.079)" fill="#888"/></g></svg>