<svg xmlns="http://www.w3.org/2000/svg" width="16" height="16" viewBox="0 0 16 16"><g transform="translate(-249 -753)"><path d="M13.157,10.531,11.876,9.25l1.281-1.281A3.625,3.625,0,0,0,8.031,2.843L6.75,4.124,5.469,2.843,6.75,1.561A5.437,5.437,0,0,1,14.439,9.25l-1.281,1.281Zm-2.564,2.564L9.313,14.376A5.437,5.437,0,1,1,1.624,6.687L2.905,5.406,4.186,6.687,2.905,7.969a3.625,3.625,0,0,0,5.126,5.126l1.281-1.281Zm0-8.971,1.282,1.282L5.469,11.813,4.186,10.531l6.407-6.407Z" transform="translate(249 753)" fill="#888"/></g></svg>