<svg xmlns="http://www.w3.org/2000/svg" width="14.3" height="17.5" viewBox="0 0 14.3 17.5"><g transform="translate(-220.25 -752.25)"><path d="M0,3.279a.75.75,0,0,1-.75-.75V0A.75.75,0,0,1,0-.75.75.75,0,0,1,.75,0V2.529A.75.75,0,0,1,0,3.279Z" transform="translate(227.4 766.471)" fill="#888"/><path d="M3.25,11.028a4.011,4.011,0,0,1-4-4.014V3.265a4,4,0,1,1,8,0v3.75A4.011,4.011,0,0,1,3.25,11.028ZM3.25.75A2.51,2.51,0,0,0,.75,3.265v3.75a2.5,2.5,0,1,0,5,0V3.265A2.51,2.51,0,0,0,3.25.75Z" transform="translate(224.15 753)" fill="#888"/><path d="M6.4,7.18A7.173,7.173,0,0,1-.75,0,.75.75,0,0,1,0-.75.75.75,0,0,1,.75,0,5.671,5.671,0,0,0,6.4,5.68,5.672,5.672,0,0,0,12.05,0a.75.75,0,0,1,.75-.75.75.75,0,0,1,.75.75A7.173,7.173,0,0,1,6.4,7.18Z" transform="translate(221 760.04)" fill="#888"/></g></svg>