<svg xmlns="http://www.w3.org/2000/svg" width="13.6" height="16" viewBox="0 0 13.6 16"><g transform="translate(-182 -764)"><path d="M13.015,7.716a3.107,3.107,0,0,1-.85-2.278V5.1a4.437,4.437,0,0,0-.956-3A5.633,5.633,0,0,0,6.835,0H6.765a5.657,5.657,0,0,0-4.3,2.01A4.5,4.5,0,0,0,1.434,5.1v.342a3.038,3.038,0,0,1-.85,2.278A2.691,2.691,0,0,0,0,9.564a2.887,2.887,0,0,0,.691,1.9,3.626,3.626,0,0,0,2.32,1.13,33.329,33.329,0,0,0,3.789.2c1.275,0,2.532-.09,3.789-.2a3.626,3.626,0,0,0,2.319-1.13,2.891,2.891,0,0,0,.691-1.9A2.69,2.69,0,0,0,13.015,7.716Z" transform="translate(182 764)"/><path d="M3.948.064a20.469,20.469,0,0,0-3.237,0C.37.143,0,.327,0,.73a1.24,1.24,0,0,0,.557.939h0a2.909,2.909,0,0,0,1.372.586,3.069,3.069,0,0,0,.806,0A2.91,2.91,0,0,0,4.1,1.669h0A1.24,1.24,0,0,0,4.66.73C4.66.327,4.29.143,3.948.064Z" transform="translate(186.459 777.719)" opacity="0.4"/></g></svg>