<svg xmlns="http://www.w3.org/2000/svg" width="15.1" height="17.5" viewBox="0 0 15.1 17.5"><g transform="translate(-312.25 -53.25)"><path d="M6.8,13.428A15.065,15.065,0,0,1,1.511,12.8,3.261,3.261,0,0,1-.747,9.841q0-.032,0-.065A4.476,4.476,0,0,1,.029,7.17,3.918,3.918,0,0,0,.705,4.756,5.893,5.893,0,0,1,6.8-.75a5.893,5.893,0,0,1,6.095,5.506,3.918,3.918,0,0,0,.676,2.414,4.476,4.476,0,0,1,.779,2.606q0,.032,0,.065A3.26,3.26,0,0,1,12.09,12.8,15.017,15.017,0,0,1,6.8,13.428ZM.75,9.743A1.79,1.79,0,0,0,2.057,11.4a14.1,14.1,0,0,0,4.743.525,14.044,14.044,0,0,0,4.743-.528A1.789,1.789,0,0,0,12.85,9.743a3,3,0,0,0-.565-1.8,5.41,5.41,0,0,1-.89-3.187A3.893,3.893,0,0,0,10.162,2.08,4.765,4.765,0,0,0,6.8.75,4.765,4.765,0,0,0,3.438,2.08,3.893,3.893,0,0,0,2.205,4.756a5.41,5.41,0,0,1-.89,3.187A3,3,0,0,0,.75,9.743Z" transform="translate(313 54)" fill="#130f26"/><path d="M1.946,1.664A3.353,3.353,0,0,1-.558.5.75.75,0,0,1-.5-.558.75.75,0,0,1,.558-.5,1.873,1.873,0,0,0,1.945.164,1.881,1.881,0,0,0,3.338-.5.75.75,0,0,1,4.4-.557.75.75,0,0,1,4.453.5,3.361,3.361,0,0,1,1.946,1.664Z" transform="translate(317.816 69.086)" fill="#130f26"/></g></svg>