<svg xmlns="http://www.w3.org/2000/svg" width="50" height="50" viewBox="0 0 50 50"><g transform="translate(-300 -736)"><rect width="50" height="50" rx="25" transform="translate(300 736)"/><path d="M19.435.582A1.933,1.933,0,0,0,17.5.079L1.408,4.76A1.919,1.919,0,0,0,.024,6.281a2.253,2.253,0,0,0,1,2.1L6.06,11.477a1.3,1.3,0,0,0,1.61-.193l5.763-5.8a.734.734,0,0,1,1.061,0,.763.763,0,0,1,0,1.067l-5.773,5.8a1.323,1.323,0,0,0-.193,1.619L11.6,19.054A1.91,1.91,0,0,0,13.263,20a2.073,2.073,0,0,0,.25-.01A1.949,1.949,0,0,0,15.144,18.6L19.916,2.525A1.964,1.964,0,0,0,19.435.582Z" transform="translate(315 751)" fill="#fff"/></g></svg>